<?xml version="1.0" encoding="UTF-8"?>
<svg id="Layer_1" data-name="Layer 1" xmlns="http://www.w3.org/2000/svg" version="1.1" viewBox="0 0 1080 1080">
  <defs>
    <style>
      .cls-1 {
        fill: #6518ea;
        stroke-width: 0px;
      }
    </style>
  </defs>
  <path class="cls-1" d="M716.7,363.3v-130.09h-130.09c0,71.85,58.24,130.09,130.09,130.09v93.21c71.73,0,130.09,58.36,130.09,130.1h93.21c0-123.13-100.17-223.31-223.3-223.31ZM716.7,716.7h-93.21c0,71.73-58.36,130.09-130.1,130.09v93.21c123.13,0,223.31-100.17,223.31-223.3h130.09v-130.09c-71.85,0-130.09,58.24-130.09,130.09ZM363.3,716.7v-93.21c-71.73,0-130.09-58.36-130.09-130.1h-93.21c0,123.13,100.17,223.31,223.3,223.31v130.09h130.09c0-71.85-58.24-130.09-130.09-130.09ZM363.3,363.3h93.21c0-71.73,58.36-130.09,130.1-130.09v-93.21c-123.13,0-223.31,100.17-223.31,223.3h-130.09v130.09c71.85,0,130.09-58.24,130.09-130.09Z"/>
</svg>